<?xml version="1.0" encoding="UTF-8"?>
<svg id="Vrstva_1" data-name="Vrstva 1" xmlns="http://www.w3.org/2000/svg" viewBox="0 0 498.49 53.01">
  <defs>
    <style>
      .cls-1 {
        fill: #1e61ac;
        stroke-width: 0px;
      }

      .cls-2 {
        fill: none;
        stroke: #1e61ac;
        stroke-miterlimit: 10;
        stroke-width: 10.86px;
      }
    </style>
  </defs>
  <g>
    <g>
      <path class="cls-1" d="M61.4,13.86h10.86v38.29h-10.86V13.86Z"/>
      <path class="cls-1" d="M82.48,13.86h10.86v5.43c2.5-3.21,5.79-6.14,11.22-6.14,8.29,0,13,5.36,13,14.22v24.79h-10.86v-21.36c0-5.14-2.36-7.79-6.57-7.79s-6.79,2.64-6.79,7.79v21.36h-10.86V13.86Z"/>
      <path class="cls-1" d="M126.7,38.65V13.86h10.86v21.36c0,5.14,2.36,7.79,6.57,7.79s6.79-2.64,6.79-7.79V13.86h10.86v38.29h-10.86v-5.43c-2.5,3.21-5.79,6.14-11.22,6.14-8.29,0-13-5.36-13-14.22Z"/>
      <path class="cls-1" d="M173.35,23.15h-4.5v-8.93h4.5v-2.43c0-4.14,1-7.22,3.07-9.29,2-2,3.85-2.19,7.71-2.19h8.79v8.89c-2.02,0-4.03-.11-5.63,0-2.64.18-3.22.81-3.22,3.59v1.5h8.79v8.86h-8.64v29h-10.86v-29Z"/>
      <path class="cls-1" d="M196.21,33.22v-.14c0-10.93,7.79-19.93,18.93-19.93,12.79,0,18.65,9.93,18.65,20.79,0,.86-.07,1.79-.14,2.86h-26.65c1.07,4.93,4.5,7.5,9.36,7.5,3.64,0,6.22-1.14,9.29-3.93l6.22,5.5c-3.64,4.5-8.72,7.14-15.65,7.14-11.5,0-20-8.07-20-19.79ZM223.22,30.01c-.64-4.86-3.5-8.14-8.07-8.14s-7.43,3.21-8.29,8.14h16.36Z"/>
      <path class="cls-1" d="M240.01,33.22v-.14c0-10.93,7.79-19.93,18.93-19.93,12.79,0,18.65,9.93,18.65,20.79,0,.86-.07,1.79-.14,2.86h-26.65c1.07,4.93,4.5,7.5,9.36,7.5,3.64,0,6.22-1.14,9.29-3.93l6.22,5.5c-3.64,4.5-8.72,7.14-15.65,7.14-11.5,0-20-8.07-20-19.79ZM267.01,30.01c-.64-4.86-3.5-8.14-8.07-8.14s-7.43,3.21-8.29,8.14h16.36Z"/>
      <path class="cls-1" d="M283.95,33.08v-.14c0-12.79,8.36-19.79,17.43-19.79,5.79,0,9.36,2.64,11.93,5.71V0h10.86v52.15h-10.86v-5.5c-2.64,3.64-6.22,6.22-11.93,6.22-8.93,0-17.43-7-17.43-19.79ZM313.45,33.08v-.14c0-6.36-4.21-10.57-9.29-10.57s-9.36,4.14-9.36,10.57v.14c0,6.36,4.29,10.57,9.36,10.57s9.29-4.21,9.29-10.57Z"/>
      <path class="cls-1" d="M351.03,33.22v-.14c0-10.93,8.36-19.93,20.07-19.93,7.22,0,11.65,2.43,15.29,6.43l-6.64,7.14c-2.5-2.57-4.79-4.21-8.72-4.21-5.43,0-9.29,4.71-9.29,10.43v.14c0,5.93,3.79,10.57,9.72,10.57,3.64,0,6.14-1.57,8.79-4.07l6.36,6.43c-3.71,4.07-8,7-15.65,7-11.5,0-19.93-8.93-19.93-19.79Z"/>
      <path class="cls-1" d="M390.75,33.22v-.14c0-11,8.86-19.93,20.79-19.93s20.65,8.72,20.65,19.79v.14c0,11-8.86,19.93-20.79,19.93s-20.65-8.72-20.65-19.79ZM421.47,33.22v-.14c0-5.64-4.07-10.57-10.07-10.57s-9.93,4.71-9.93,10.43v.14c0,5.64,4.07,10.57,10.07,10.57s9.93-4.71,9.93-10.43Z"/>
      <path class="cls-1" d="M440.05,13.86h10.86v5.43c2.5-3.21,5.79-6.14,11.29-6.14,5.07,0,8.79,2.14,10.79,6.07,3.36-4,7.36-6.07,12.57-6.07,8.07,0,12.93,4.86,12.93,14.07v24.93h-10.86v-21.36c0-5.14-2.29-7.79-6.36-7.79s-6.57,2.64-6.57,7.79v21.36h-10.86v-21.36c0-5.14-2.29-7.79-6.36-7.79s-6.57,2.64-6.57,7.79v21.36h-10.86V13.86Z"/>
    </g>
    <g>
      <path class="cls-2" d="M0,26.56c19.93,0,24.94,14,24.94,25.63"/>
      <path class="cls-2" d="M0,6.11c15.89,0,45.39,3.34,45.39,46.05"/>
      <circle class="cls-1" cx="5.76" cy="46.39" r="5.76"/>
    </g>
  </g>
  <circle class="cls-1" cx="66.83" cy="6.11" r="5.76"/>
  <circle class="cls-1" cx="338.13" cy="46.39" r="5.76"/>
</svg>